<?xml version="1.0" encoding="utf-8"?>
<!-- Generator: Adobe Illustrator 15.0.0, SVG Export Plug-In . SVG Version: 6.00 Build 0)  -->
<!DOCTYPE svg PUBLIC "-//W3C//DTD SVG 1.1//EN" "http://www.w3.org/Graphics/SVG/1.1/DTD/svg11.dtd">
<svg version="1.1" id="图层_1" xmlns="http://www.w3.org/2000/svg" xmlns:xlink="http://www.w3.org/1999/xlink" x="0px" y="0px"
	 width="699.997px" height="180px" viewBox="0 0 699.997 180" enable-background="new 0 0 699.997 180" xml:space="preserve">
<polygon fill="#7DB132" points="165.953,16.99 154.752,79.228 94.972,79.228 106.173,16.99 74.04,16.99 46.183,171.78 
	78.316,171.78 90.46,104.298 150.24,104.298 138.096,171.78 170.228,171.78 198.086,16.99 "/>
<g>
	<defs>
		<rect id="SVGID_1_" width="699.997" height="180"/>
	</defs>
	<clipPath id="SVGID_2_">
		<use xlink:href="#SVGID_1_"  overflow="visible"/>
	</clipPath>
	<path clip-path="url(#SVGID_2_)" fill="#7DB132" d="M257.661,71.521l17.138,1.749c-2.216,11.075-6.5,19.266-12.853,24.569
		c-6.355,5.306-14.021,7.957-22.997,7.957c-12.184,0-21.553-4.444-28.111-13.334C204.279,83.575,201,72.688,201,59.805
		c0-13.291,3.585-24.278,10.755-32.964c7.17-8.685,16.729-13.028,28.68-13.028c19.236,0,30.691,10.142,34.363,30.428l-17.138,2.361
		c-1.517-10.959-6.908-16.438-16.176-16.438c-6.763,0-11.673,2.959-14.733,8.875c-3.061,5.917-4.591,13.071-4.591,21.465
		c0,8.919,1.588,15.798,4.766,20.636c3.176,4.839,7.62,7.257,13.334,7.257C249.004,88.396,254.805,82.772,257.661,71.521"/>
	<polygon clip-path="url(#SVGID_2_)" fill="#7DB132" points="301.858,103.964 282.965,103.964 282.965,14.832 340.422,14.832 
		340.422,29.874 301.858,29.874 301.858,50.912 337.646,50.912 337.646,66.199 301.858,66.199 	"/>
	<g clip-path="url(#SVGID_2_)">
		<path fill="#7A8B90" stroke="#8D848D" stroke-width="5" stroke-miterlimit="10" d="M416.51,60.082
			c0,23.752-13.807,38.494-32.527,40.835c-4.095,0.468-5.967,0.468-10.296,0.468H349.7V20.652h24.571c4.329,0,6.201,0,10.296,0.468
			C403.288,23.46,416.51,35.979,416.51,60.082z M405.512,60.082c0-17.901-8.308-28.432-21.997-30.655
			c-2.574-0.468-5.616-0.585-9.828-0.585h-13.924v64.353h13.339c4.212,0,7.254-0.116,9.828-0.585
			C396.619,90.387,405.512,79.154,405.512,60.082z"/>
		<path fill="#7A8B90" stroke="#8D848D" stroke-width="5" stroke-miterlimit="10" d="M489.752,77.633
			c0,14.742-10.18,21.529-20.827,23.167c-3.978,0.585-6.552,0.585-10.296,0.585h-25.976V20.652h23.752c3.861,0,6.669,0,10.53,0.468
			c12.754,1.755,19.891,8.19,19.891,19.657c0,9.711-5.382,14.86-13.689,17.668C483.784,60.901,489.752,66.518,489.752,77.633z
			 M442.716,55.402h15.562c2.106,0,4.096-0.117,6.436-0.468c8.308-1.287,11.35-6.201,11.35-13.338
			c0-7.957-5.148-11.701-12.402-12.52c-2.106-0.234-4.563-0.234-6.436-0.234h-14.509V55.402z M478.987,78.686
			c0-9.945-5.382-13.573-13.104-14.625c-2.691-0.351-4.563-0.468-6.436-0.468h-16.731v29.602h17.434
			c1.872,0,4.096-0.116,5.616-0.233C473.488,92.258,478.987,87.461,478.987,78.686z"/>
		<path fill="#7A8B90" stroke="#8D848D" stroke-width="5" stroke-miterlimit="10" d="M537.486,92.492l-3.394,6.67
			c-4.212,2.925-9.594,3.861-15.562,3.861c-11.232,0-20.008-6.201-20.008-17.668c0-14.041,10.53-21.294,34.867-21.294h3.979v-1.638
			c0-2.691,0-5.148-0.234-7.488c-0.468-5.733-3.744-9.478-12.051-9.478c-8.425,0-12.637,4.563-13.339,13.104h-10.53
			c0.936-13.221,10.18-20.827,23.869-20.827c14.742,0,20.943,6.201,21.996,16.381c0.234,2.457,0.352,5.499,0.352,8.19v23.284
			c0,4.68,0.234,8.892,1.17,15.795h-10.063L537.486,92.492z M537.369,77.867v-6.318c-17.083-1.287-27.847,2.34-27.847,12.987
			c0,7.488,4.797,10.765,12.402,10.765C531.285,95.301,537.369,89.099,537.369,77.867z"/>
		<path fill="#7A8B90" stroke="#8D848D" stroke-width="5" stroke-miterlimit="10" d="M599.612,92.492l-3.394,6.67
			c-4.212,2.925-9.594,3.861-15.562,3.861c-11.232,0-20.008-6.201-20.008-17.668c0-14.041,10.53-21.294,34.867-21.294h3.979v-1.638
			c0-2.691,0-5.148-0.234-7.488c-0.468-5.733-3.744-9.478-12.051-9.478c-8.425,0-12.637,4.563-13.339,13.104h-10.53
			c0.936-13.221,10.18-20.827,23.869-20.827c14.742,0,20.943,6.201,21.996,16.381c0.234,2.457,0.352,5.499,0.352,8.19v23.284
			c0,4.68,0.233,8.892,1.17,15.795h-10.063L599.612,92.492z M599.495,77.867v-6.318c-17.083-1.287-27.847,2.34-27.847,12.987
			c0,7.488,4.797,10.765,12.402,10.765C593.411,95.301,599.495,89.099,599.495,77.867z"/>
		<path fill="#7A8B90" stroke="#8D848D" stroke-width="5" stroke-miterlimit="10" d="M682.331,43h-10.765
			c-0.936-10.179-6.903-16.03-17.083-16.03c-8.541,0-15.327,3.979-15.327,12.403c0,8.775,5.031,12.52,17.316,15.328
			c17.785,4.095,26.678,11.349,26.678,25.039c0,14.158-12.169,23.285-27.73,23.285c-17.785,0-29.018-9.01-30.772-24.571h10.765
			c2.34,10.647,9.711,16.614,20.242,16.614c9.243,0,16.731-5.031,16.731-13.456c0-9.828-5.616-14.274-19.774-17.55
			c-14.274-3.276-24.22-9.01-24.22-22.348c0-13.923,12.052-22.699,26.911-22.699C672.034,19.014,680.81,29.193,682.331,43z"/>
	</g>
	<polygon clip-path="url(#SVGID_2_)" fill="#7DB132" points="348.432,44.681 372.725,17.832 348.432,17.832 	"/>
</g>
<g>
	<path fill="#FEFBFC" d="M230.56,134.094c1,0,1.834,0.72,1.834,1.584v0.096c0,0.864-0.834,1.584-1.834,1.584h-9.063v8.641
		c0,0.864-0.834,1.585-1.835,1.585h-0.111c-1,0-1.834-0.721-1.834-1.585v-8.641h-9.008c-1.001,0-1.835-0.72-1.835-1.584v-0.096
		c0-0.864,0.834-1.584,1.835-1.584h9.008v-7.585c0-0.816,0.834-1.584,1.834-1.584h0.111c1.001,0,1.835,0.768,1.835,1.584v7.585
		H230.56z M231.116,150.703c1.001,0,1.835,0.768,1.835,1.584v0.096c0,0.864-0.834,1.584-1.835,1.584h-1.112
		c0,0.097-0.056,0.192-0.056,0.288c-0.445,1.584-1.112,3.072-2.057,4.368c-1.057,1.537-2.447,2.881-4.115,4.033l6.228,2.208
		c0.89,0.336,1.334,1.296,0.945,2.064c-0.167,0.432-0.5,0.72-1.001,0.863c-0.445,0.192-0.945,0.192-1.39,0l-8.452-3.024
		c-1.223,0.576-2.558,1.104-3.948,1.585c-2.168,0.672-4.393,1.248-6.839,1.68c-1,0.192-2.001-0.384-2.168-1.296
		c-0.167-0.864,0.445-1.632,1.39-1.824c2.335-0.48,4.671-1.008,6.839-1.776l-0.89-0.336c-1.279-0.432-2.335-1.152-2.947-1.968
		c-0.611-0.912-0.89-1.872-0.89-2.977c0-0.48,0.056-0.912,0.167-1.393c0.056-0.432,0.222-0.863,0.389-1.344l0.445-1.152h-2.947
		c-1.001,0-1.835-0.72-1.835-1.584v-0.096c0-0.816,0.834-1.584,1.835-1.584h4.337l0.834-1.921c0.333-0.863,1.334-1.296,2.335-0.96
		h0.056c1,0.288,1.501,1.2,1.167,2.064l-0.333,0.816H231.116z M210.209,139.134c0.334-0.816,1.334-1.248,2.335-1.008l0.111,0.048
		c0.945,0.288,1.446,1.2,1.167,1.968l-2.168,5.521c-0.333,0.816-1.39,1.248-2.335,1.009l-0.111-0.049
		c-0.945-0.288-1.446-1.199-1.168-2.016L210.209,139.134z M213.601,130.781c0.389,0.816-0.056,1.729-0.945,2.064l-0.111,0.048
		c-0.945,0.336-2.001-0.048-2.391-0.864l-1.89-3.841c-0.445-0.815,0.056-1.775,0.945-2.063l0.111-0.048
		c0.89-0.337,2.002,0.048,2.391,0.863L213.601,130.781z M214.769,156.176c-0.167,0.287-0.278,0.624-0.278,0.863
		c-0.056,0.288-0.111,0.576-0.111,0.816c0,0.96,0.556,1.584,1.612,1.968l3.726,1.345c0.222-0.097,0.389-0.24,0.612-0.384
		c1.668-1.057,3.058-2.305,4.114-3.745c0.723-0.912,1.224-1.968,1.613-3.072h-10.342L214.769,156.176z M225.5,140.142
		c-0.333-0.815,0.167-1.68,1.112-1.968l0.055-0.048c1.001-0.24,2.058,0.191,2.335,1.008l2.168,5.473
		c0.278,0.816-0.222,1.728-1.112,2.016h-0.111c-0.945,0.288-2.002-0.144-2.28-0.96L225.5,140.142z M229.114,132.029
		c-0.333,0.768-1.39,1.2-2.391,0.864l-0.056-0.048c-0.945-0.336-1.39-1.248-1-2.064l1.89-3.841c0.389-0.815,1.446-1.151,2.391-0.863
		l0.056,0.048c0.945,0.288,1.39,1.248,1.001,2.063L229.114,132.029z M239.512,129.725h15.124c1.057,0,1.835,0.721,1.835,1.585v0.048
		c0,0.864-0.778,1.584-1.835,1.584h-0.222v0.288c-0.945,4.128-1.946,7.824-3.114,11.137c-1.001,2.977-2.168,5.713-3.392,8.161
		l8.285,12.865c0.445,0.768,0.111,1.68-0.723,2.111c-0.445,0.24-0.945,0.288-1.446,0.192c-0.5-0.144-0.834-0.384-1.112-0.768
		l-6.895-10.802c-1.334,2.257-2.725,4.272-4.115,6.097c-1.39,1.776-2.891,3.456-4.393,4.944c-0.389,0.336-0.778,0.528-1.279,0.576
		c-0.556,0-1.057-0.144-1.39-0.479c-0.723-0.576-0.834-1.585-0.167-2.16c1.501-1.488,2.836-3.072,4.226-4.753
		c1.668-2.16,3.336-4.608,4.782-7.44c0.056-0.048,0.056-0.145,0.111-0.24l-7.673-12.049c-0.5-0.72-0.222-1.632,0.667-2.112
		l0.111-0.048c0.834-0.433,1.946-0.145,2.447,0.624l6.283,9.841c0.778-1.776,1.501-3.648,2.168-5.616
		c1.057-3.072,2.057-6.529,2.891-10.369h-13.623c-0.556,0-1.001-0.192-1.39-0.528c-0.333-0.384-0.5-0.768-0.389-1.296l0.834-4.561
		c0.167-0.864,1.057-1.44,2.058-1.296l0.167,0.048c1.001,0.096,1.668,0.912,1.557,1.729L239.512,129.725z"/>
	<path fill="#FEFBFC" d="M279.718,134.285c-1.057,0-1.835-0.672-1.835-1.584v-0.048c0-0.864,0.778-1.584,1.835-1.584h4.949v-4.704
		c0-0.864,0.834-1.585,1.834-1.585h0.111c1.001,0,1.835,0.721,1.835,1.585v4.704h2.391c1,0,1.835,0.72,1.835,1.584v0.048
		c0,0.912-0.834,1.584-1.835,1.584h-2.391v13.153l2.836-1.392c0.89-0.433,2.001-0.145,2.502,0.624l0.056,0.048
		c0.445,0.72,0.167,1.68-0.723,2.16l-4.67,2.304v10.993c0,2.448-1.612,4.513-4.17,5.568c-0.834,0.288-1.724,0.433-2.669,0.433h-1
		c-1.001,0-1.835-0.721-1.835-1.585v-0.048c0-0.912,0.834-1.584,1.835-1.584h1c0.89,0,1.613-0.288,2.224-0.816
		c0.556-0.527,0.834-1.151,0.834-1.968v-9.121l-4.226,2.064c-0.89,0.432-2.001,0.145-2.558-0.624v-0.048
		c-0.5-0.769-0.167-1.729,0.667-2.16l6.117-2.977v-15.025H279.718z M295.565,130.301c0.111-1.296,0.778-2.64,1.891-3.552
		c0.5-0.48,1.112-0.864,1.835-1.104c0.723-0.288,1.501-0.432,2.28-0.432h20.017c1.613,0,3.059,0.576,4.17,1.536
		c0.556,0.432,0.945,0.96,1.279,1.584c0.278,0.624,0.5,1.296,0.5,2.016v3.217c0,2.784-2.725,5.089-5.95,5.089h-22.463h-0.056
		l-1.112,28.034c-0.056,0.912-0.834,1.584-1.835,1.584h-0.111c-1.057-0.048-1.779-0.816-1.779-1.681L295.565,130.301z
		 M321.587,135.39c1.224,0,2.169-0.72,2.169-1.824v-3.217c0-0.527-0.223-0.96-0.612-1.344s-0.945-0.528-1.557-0.528H301.57
		c-0.612,0-1.168,0.145-1.557,0.528s-0.612,0.816-0.612,1.344l-0.222,5.041H321.587z M325.702,144.702
		c0.945,0,1.835,0.721,1.835,1.584v0.048c0,0.912-0.89,1.585-1.835,1.585h-9.23v4.944h5.115c1.335,0,2.502,0.384,3.503,1.248
		c1,0.864,1.445,1.824,1.445,3.024V164c0,1.152-0.445,2.16-1.445,2.977c-1.001,0.815-2.168,1.296-3.503,1.296H307.52
		c-1.334,0-2.502-0.48-3.503-1.296c-1.001-0.816-1.446-1.824-1.446-2.977v-6.864c0-1.2,0.445-2.16,1.446-3.024
		s2.168-1.248,3.503-1.248h5.171v-4.944h-9.286c-0.945,0-1.779-0.673-1.779-1.585v-0.048c0-0.863,0.834-1.584,1.779-1.584h9.286
		v-3.456c0-0.864,0.834-1.584,1.835-1.584h0.111c1.001,0,1.835,0.72,1.835,1.584v3.456H325.702z M322.755,157.136
		c0-0.576-0.556-1.009-1.168-1.009H307.52c-0.667,0-1.112,0.433-1.112,1.009V164c0,0.576,0.445,1.008,1.112,1.008h14.067
		c0.612,0,1.168-0.432,1.168-1.008V157.136z"/>
	<path fill="#FEFBFC" d="M357.901,132.125c-0.834,0-1.612,0.336-2.169,0.864c-0.611,0.576-0.945,1.2-0.945,2.017l-2.446,31.538
		c-0.056,0.864-0.89,1.536-1.891,1.488h-0.111c-1.001-0.048-1.779-0.816-1.724-1.68l2.336-31.539
		c0.166-1.536,0.944-3.024,2.168-4.128c0.611-0.528,1.335-0.961,2.169-1.297c0.834-0.288,1.668-0.479,2.613-0.479h14.901v-2.641
		c0-0.864,0.834-1.584,1.835-1.584h0.111c0.945,0,1.835,0.72,1.835,1.584v2.641h17.348c1.001,0,1.835,0.72,1.835,1.584v0.096
		c0,0.864-0.834,1.536-1.835,1.536H357.901z M393.098,138.366c0.945,0,1.779,0.72,1.779,1.536v0.096
		c0,0.912-0.834,1.584-1.779,1.584h-25.188l-2.279,8.064h10.064v-4.224c0-0.864,0.834-1.536,1.835-1.536h0.111
		c1,0,1.834,0.672,1.834,1.536v4.224h12.511c1.057,0,1.835,0.672,1.835,1.584v0.097c0,0.815-0.778,1.536-1.835,1.536h-12.511v5.424
		h13.79c1.057,0,1.835,0.721,1.835,1.585v0.096c0,0.864-0.778,1.584-1.835,1.584h-13.79v4.896c0,0.864-0.834,1.584-1.834,1.584
		h-0.111c-1.001,0-1.835-0.72-1.835-1.584v-4.896h-15.291c-1.001,0-1.835-0.72-1.835-1.584v-0.096c0-0.864,0.834-1.585,1.835-1.585
		h15.291v-5.424h-12.678c-0.556,0-1.057-0.192-1.445-0.576c-0.334-0.433-0.445-0.912-0.278-1.393l2.725-9.313h-3.392
		c-1.001,0-1.835-0.672-1.835-1.584v-0.096c0-0.816,0.834-1.536,1.835-1.536h4.337l1.001-3.265c0.277-0.864,1.278-1.344,2.279-1.104
		h0.056c1.001,0.192,1.557,1.104,1.279,1.921l-0.724,2.448H393.098z"/>
	<path fill="#FEFBFC" d="M461.773,143.118c0-0.528-0.167-1.056-0.612-1.392c-0.389-0.385-0.89-0.576-1.501-0.576h-34.975
		c-0.611,0-1.111,0.191-1.557,0.576c-0.389,0.336-0.611,0.863-0.611,1.392v0.816c0,0.864-0.778,1.584-1.835,1.584h-0.111
		c-1.001,0-1.835-0.72-1.835-1.584v-0.816c0-0.72,0.167-1.392,0.5-2.017c0.612-1.248,1.669-2.208,3.114-2.784
		c0.667-0.336,1.445-0.432,2.335-0.432h15.569v-1.729c0-0.863,0.89-1.584,1.835-1.584h0.111c1.001,0,1.835,0.721,1.835,1.584v1.729
		h15.624c0.834,0,1.501,0.096,2.279,0.432c1.446,0.576,2.503,1.536,3.114,2.784c0.334,0.625,0.5,1.297,0.5,2.017v0.816
		c0,0.864-0.834,1.584-1.835,1.584h-0.11c-1.001,0-1.835-0.72-1.835-1.584V143.118z M424.13,129.053h15.291
		c1.057,0,1.835,0.721,1.835,1.536v0.097c0,0.912-0.778,1.584-1.835,1.584h-9.286v3.024c0,0.863-0.834,1.536-1.835,1.536h-0.111
		c-1,0-1.835-0.673-1.835-1.536v-3.024h-5.727c-1.391,0-2.335-1.297-1.557-2.353l2.168-3.12c0.501-0.769,1.668-1.008,2.502-0.576
		l0.111,0.096c0.89,0.433,1.168,1.393,0.668,2.16L424.13,129.053z M457.992,157.52c1.334,0,2.558,0.432,3.447,1.248
		c0.945,0.816,1.501,1.824,1.501,3.024v2.304c0,1.104-0.611,2.16-1.501,2.977s-2.113,1.248-3.447,1.248H427.41
		c-2.446,0-4.448-1.248-5.449-3.168c-0.277-0.576-0.444-1.248-0.444-1.969v-14.209c0-0.672,0.167-1.344,0.444-1.968
		c1.001-1.872,3.003-3.169,5.449-3.169h29.971c1.334,0,2.558,0.433,3.447,1.297c0.945,0.815,1.501,1.824,1.501,3.023v2.353
		c0,1.2-0.556,2.208-1.501,3.072c-0.89,0.816-2.113,1.2-3.447,1.2h-32.083v2.736H457.992z M457.381,151.519
		c0.667,0,1.167-0.432,1.167-1.008v-2.353c0-0.575-0.5-1.008-1.167-1.008H427.41c-1.278,0-2.112,0.769-2.112,1.824v2.544H457.381z
		 M425.909,164.576c0.39,0.336,0.89,0.528,1.501,0.528h30.582c0.667,0,1.168-0.433,1.168-1.009v-2.304
		c0-0.576-0.501-1.008-1.168-1.008h-32.694v2.399C425.298,163.712,425.465,164.192,425.909,164.576z M451.098,129.053h14.067
		c1.001,0,1.835,0.721,1.835,1.536v0.097c0,0.912-0.834,1.584-1.835,1.584h-8.729v3.024c0,0.863-0.778,1.536-1.835,1.536h-0.111
		c-1.001,0-1.835-0.673-1.835-1.536v-3.024h-5.06c-1.446,0-2.28-1.297-1.558-2.353l2.169-3.12c0.556-0.769,1.668-1.008,2.558-0.576
		l0.056,0.096c0.89,0.433,1.224,1.393,0.667,2.16L451.098,129.053z"/>
	<path fill="#FEFBFC" d="M501.868,127.613c1.001,0,1.835,0.72,1.835,1.584v0.096c0,0.864-0.834,1.584-1.835,1.584h-3.892v13.537
		h3.503c1.057,0,1.835,0.721,1.835,1.584v0.097c0,0.864-0.778,1.584-1.835,1.584h-3.503v13.489l4.393-0.96
		c0.945-0.192,2.002,0.288,2.168,1.151l0.056,0.049c0.278,0.863-0.333,1.728-1.334,1.92l-13.289,2.88
		c-1.001,0.192-1.946-0.336-2.225-1.152l-0.056-0.144c-0.222-0.816,0.39-1.68,1.391-1.872l5.171-1.104V161.6v-13.921h-3.614
		c-0.945,0-1.779-0.72-1.779-1.584v-0.097c0-0.863,0.834-1.584,1.779-1.584h3.614v-13.537h-3.837c-1.057,0-1.835-0.72-1.835-1.584
		v-0.096c0-0.864,0.778-1.584,1.835-1.584H501.868z M535.842,165.056c1.001,0,1.835,0.721,1.835,1.585v0.144
		c0,0.864-0.834,1.584-1.835,1.584h-28.413c-1.001,0-1.835-0.72-1.835-1.584v-0.144c0-0.864,0.834-1.585,1.835-1.585h12.344v-7.344
		h-10.953c-1.001,0-1.835-0.721-1.835-1.585v-0.048c0-0.864,0.834-1.584,1.835-1.584h10.953v-5.568h-6.228
		c-0.945,0-1.891-0.192-2.669-0.48c-1.724-0.624-2.946-1.728-3.726-3.168c-0.333-0.768-0.556-1.536-0.556-2.353v-11.809
		c0-0.864,0.223-1.632,0.556-2.353c1.112-2.208,3.559-3.744,6.395-3.744h16.125c2.836,0,5.282,1.536,6.395,3.744
		c0.389,0.721,0.556,1.488,0.556,2.353v11.809c0,0.816-0.167,1.585-0.556,2.353c-0.778,1.44-2.002,2.544-3.726,3.168
		c-0.778,0.288-1.724,0.48-2.669,0.48h-6.116v5.568h10.898c1.001,0,1.835,0.72,1.835,1.584v0.048c0,0.864-0.834,1.585-1.835,1.585
		h-10.898v7.344H535.842z M519.772,128.381v-0.048h-6.228c-0.89,0-1.612,0.288-2.279,0.816c-0.611,0.527-0.89,1.151-0.89,1.968
		v4.416h9.396V128.381z M510.376,142.926c0,0.769,0.278,1.393,0.89,1.921c0.667,0.527,1.39,0.815,2.279,0.815h6.228v-6.912h-9.396
		V142.926z M523.554,135.533h9.341v-4.416c0-0.816-0.333-1.44-1-1.968c-0.612-0.528-1.391-0.816-2.225-0.816h-6.116v0.048V135.533z
		 M529.67,145.662c0.834,0,1.612-0.288,2.225-0.815c0.667-0.528,1-1.152,1-1.921v-4.176h-9.341v6.912H529.67z"/>
	<path fill="#FEFBFC" d="M603.294,125.74c0.945,0,1.835,0.721,1.835,1.585v0.048c0,0.864-0.89,1.584-1.835,1.584h-19.017v21.554
		h20.852c1.001,0,1.835,0.672,1.835,1.584v0.097c0,0.815-0.834,1.584-1.835,1.584h-20.852v13.345c0,0.864-0.834,1.584-1.834,1.584
		h-0.056c-1.001,0-1.835-0.72-1.835-1.584v-13.345h-20.907c-0.945,0-1.835-0.769-1.835-1.584v-0.097c0-0.912,0.89-1.584,1.835-1.584
		h20.907v-21.554H561.48c-1.001,0-1.835-0.72-1.835-1.584v-0.048c0-0.864,0.834-1.585,1.835-1.585H603.294z M571.545,144.799
		c0.277,0.815-0.167,1.68-1.057,2.016l-0.111,0.048c-1.001,0.288-2.058-0.144-2.391-0.96l-5.115-11.953
		c-0.278-0.768,0.166-1.68,1.111-2.016l0.111-0.049c0.945-0.287,2.002,0.145,2.336,0.961L571.545,144.799z M602.07,133.854
		c-0.611,2.353-1.39,4.513-2.279,6.528c-0.834,1.92-1.835,3.889-2.836,5.713c-0.444,0.815-1.557,1.104-2.502,0.72h-0.056
		c-0.89-0.384-1.278-1.392-0.778-2.112c0.945-1.824,1.835-3.601,2.669-5.473c0.834-1.92,1.557-3.936,2.169-6.145
		c0.277-0.815,1.223-1.344,2.224-1.2c0.501,0.097,0.89,0.337,1.224,0.769C602.126,132.989,602.237,133.421,602.07,133.854z"/>
	<path fill="#FEFBFC" d="M630.212,152.479c0-0.863,0.166-1.584,0.556-2.352c0.723-1.44,1.946-2.544,3.726-3.168
		c0.778-0.337,1.724-0.48,2.669-0.48h30.581c0.945,0,1.835,0.144,2.669,0.48c1.725,0.624,2.947,1.728,3.67,3.168
		c0.445,0.768,0.557,1.488,0.557,2.352v9.745c0,0.864-0.111,1.633-0.557,2.353c-0.723,1.488-1.945,2.544-3.67,3.216
		c-0.834,0.288-1.724,0.48-2.669,0.48h-30.581c-0.945,0-1.891-0.192-2.669-0.48c-1.779-0.672-3.003-1.728-3.726-3.216
		c-0.39-0.72-0.556-1.488-0.556-2.353V152.479z M673.805,137.214c0,0.768-0.223,1.584-0.557,2.352
		c-0.723,1.44-2.002,2.545-3.67,3.121c-0.89,0.336-1.779,0.527-2.779,0.527h-33.752c-0.611,0-1.111-0.239-1.501-0.672
		c-0.333-0.384-0.444-0.912-0.223-1.392l5.616-14.882c0.278-0.864,1.279-1.296,2.279-1.056c0.501,0.191,0.835,0.384,1.112,0.768
		c0.278,0.433,0.278,0.864,0.111,1.248l-4.782,12.722h31.139c0.944,0,1.668-0.288,2.279-0.816s0.945-1.152,0.945-1.92v-4.608
		c0-0.912,0.834-1.584,1.835-1.584h0.111c1.001,0,1.835,0.672,1.835,1.584V137.214z M633.937,162.224
		c0,0.816,0.334,1.393,0.945,1.969c0.668,0.527,1.391,0.815,2.28,0.815h30.581c0.835,0,1.613-0.288,2.225-0.815
		c0.611-0.576,0.945-1.152,0.945-1.969v-9.745c0-0.768-0.334-1.392-0.945-1.92c-0.611-0.527-1.39-0.864-2.225-0.864h-30.581
		c-0.89,0-1.612,0.337-2.28,0.864c-0.611,0.528-0.945,1.152-0.945,1.92V162.224z"/>
</g>
</svg>
